<svg id="Capa_1" enable-background="new 0 0 512 512" height="512" viewBox="0 0 512 512" width="512" xmlns="http://www.w3.org/2000/svg"><g><path d="m502 332.76h-492c-5.523 0-10 4.477-10 10v23.49c0 5.523 4.477 10 10 10h492c5.523 0 10-4.477 10-10v-23.49c0-5.523-4.477-10-10-10z"/><path d="m321.96 238.57c0-8.284 6.716-15 15-15h151.65v-213.57c0-5.523-4.477-10-10-10h-445.22c-5.523 0-10 4.477-10 10v292.76h298.57zm-230.19-177.17h328.46c8.28 0 15 6.72 15 15 0 8.29-6.72 15-15 15h-328.46c-8.28 0-15-6.71-15-15 0-8.28 6.72-15 15-15zm201.28 123.02h-201.28c-8.28 0-15-6.72-15-15 0-8.29 6.72-15 15-15h201.28c8.29 0 15 6.71 15 15 0 8.28-6.71 15-15 15z"/><path d="m351.96 253.57h136.65v49.19h-136.65z"/><path d="m65.03 498.77c-2.22 6.49 2.61 13.23 9.46 13.23h43.83c4.28 0 8.09-2.72 9.47-6.77l33.73-98.98h-64.96z"/><path d="m415.44 406.25h-64.96l33.73 98.98c1.38 4.05 5.19 6.77 9.47 6.77h43.83c6.85 0 11.68-6.74 9.46-13.23z"/></g></svg>