<?xml version="1.0" encoding="iso-8859-1"?>
<!-- Generator: Adobe Illustrator 19.0.0, SVG Export Plug-In . SVG Version: 6.00 Build 0)  -->
<svg version="1.1" id="Capa_1" xmlns="http://www.w3.org/2000/svg" xmlns:xlink="http://www.w3.org/1999/xlink" x="0px" y="0px"
	 viewBox="0 0 512 512" style="enable-background:new 0 0 512 512;" xml:space="preserve">
<g>
	<g>
		<rect x="233.71" y="284.181" width="44.578" height="29.616"/>
	</g>
</g>
<g>
	<g>
		<path d="M425.378,291.787c-38.211,10.193-77.532,16.928-117.089,20.087v31.924H203.711v-31.924
			c-39.557-3.159-78.878-9.894-117.089-20.087l-68.497-18.272v205.141h475.75V273.514L425.378,291.787z"/>
	</g>
</g>
<g>
	<g>
		<path d="M342.673,111.78V33.345H169.327v78.435H0v125.851l94.354,25.17c35.696,9.521,72.408,15.892,109.356,18.984v-27.603
			h104.578v27.603c36.948-3.093,73.661-9.463,109.356-18.984L512,237.631V111.78H342.673z M312.673,111.78H199.327V63.345h113.346
			V111.78z"/>
	</g>
</g>
<g>
</g>
<g>
</g>
<g>
</g>
<g>
</g>
<g>
</g>
<g>
</g>
<g>
</g>
<g>
</g>
<g>
</g>
<g>
</g>
<g>
</g>
<g>
</g>
<g>
</g>
<g>
</g>
<g>
</g>
</svg>
