<svg id="Capa_1" enable-background="new 0 0 512 512" height="512" viewBox="0 0 512 512" width="512" xmlns="http://www.w3.org/2000/svg"><g><circle cx="166" cy="196" r="30"/><path d="m181 288.763v57.237h-30v-57.237c-17.422 6.213-30 22.707-30 42.237v45h90v-45c0-19.53-12.578-36.024-30-42.237z"/><path d="m46 512h240v-91h90v-330h-330zm225-316h60v30h-60zm0 60h60v30h-60zm0 60h60v30h-60zm-180 15c0-41.353 33.647-75 75-75-33.091 0-60-26.909-60-60s26.909-60 60-60 60 26.909 60 60-26.909 60-60 60c41.353 0 75 33.647 75 75v75h-150z"/><path d="m376 451h-60v53.403z"/><path d="m106 61h300v360h60v-421h-360z"/></g></svg>