<svg id="Capa_1" enable-background="new 0 0 510 510" height="512" viewBox="0 0 510 510" width="512" xmlns="http://www.w3.org/2000/svg"><g id="XMLID_149_"><path id="XMLID_347_" d="m270 30v-30h-30v30h-240v60h510v-60z"/><path id="XMLID_848_" d="m210 255h30v60h-30z"/><path id="XMLID_893_" d="m270 225h30v90h-30z"/><path id="XMLID_896_" d="m150 285h30v30h-30z"/><path id="XMLID_900_" d="m30 390h210v48.129c-13.242 5.788-22.5 18.995-22.5 34.371 0 20.711 16.789 37.5 37.5 37.5s37.5-16.789 37.5-37.5c0-15.376-9.258-28.583-22.5-34.371v-48.129h210v-270h-450zm60-225h75v30h-75zm0 150h30v-60h60v-30h60v-30h60v-30h90v150h30v30c-13.273 0-313.691 0-330 0z"/><path id="XMLID_902_" d="m330 195h30v120h-30z"/></g></svg>