<svg id="Capa_1" enable-background="new 0 0 512 512" height="512" viewBox="0 0 512 512" width="512" xmlns="http://www.w3.org/2000/svg"><g><path d="m420.765 38.045c0-20.978-17.067-38.045-38.045-38.045h-269.742c7.356 10.867 11.656 23.963 11.656 38.045v435.909c0 20.979 17.067 38.045 38.045 38.045s38.045-17.067 38.045-38.045v-74.098h220.041zm-243.662 15.287h95.597v30h-95.597zm191.193 293.193h-191.193v-30h191.194v30zm0-65.798h-191.193v-30h191.194v30zm0-65.799h-191.193v-30h191.194v30zm0-65.798h-191.193v-30h191.194v30zm0-65.798h-33.734v-30h33.734z"/><path d="m56.588 0c-20.978 0-38.045 17.067-38.045 38.045v44.098h76.091v-44.098c0-20.978-17.067-38.045-38.046-38.045z"/><path d="m230.725 429.857v44.098c0 14.082-4.3 27.178-11.655 38.045h236.342c20.978 0 38.045-17.067 38.045-38.045v-44.098z"/></g></svg>