<svg height="512pt" viewBox="0 -46 512 512" width="512pt" xmlns="http://www.w3.org/2000/svg"><path d="m122 165v-16h-122v16c0 40.558594 9.359375 79.671875 27.050781 114.871094l106.140625-61.28125c-7.203125-16.417969-11.191406-34.550782-11.191406-53.589844zm26.230469 79.539062-106.140625 61.28125c9.460937 14.328126 20.449218 27.800782 32.871094 40.21875 12.417968 12.421876 25.890624 23.410157 40.21875 32.871094l61.28125-106.140625c-10.761719-7.949219-20.28125-17.46875-28.230469-28.230469zm54.179687 43.28125-61.28125 106.128907c30.839844 15.5 64.679688 24.601562 99.871094 26.609375v-122.398438c-13.578125-1.511718-26.550781-5.070312-38.589844-10.339844zm107.179688-.011718c-12.039063 5.28125-25.011719 8.839844-38.589844 10.351562v122.398438c35.191406-2.007813 69.03125-11.109375 99.871094-26.609375zm54.179687-43.269532c-7.949219 10.761719-17.46875 20.28125-28.230469 28.230469l61.28125 106.140625c14.328126-9.460937 27.800782-20.449218 40.21875-32.871094 12.421876-12.417968 23.410157-25.890624 32.871094-40.21875zm26.230469-95.539062v16c0 19.039062-3.988281 37.171875-11.179688 53.578125l106.128907 61.28125c17.691406-35.199219 27.050781-74.308594 27.050781-114.859375v-16zm0 0"/><path d="m256 150c-24.8125 0-45-20.1875-45-45s20.1875-45 45-45 45 20.1875 45 45-20.1875 45-45 45zm0 0"/><path d="m316 240h-120v-30c0-33.085938 26.914062-60 60-60s60 26.914062 60 60zm0 0"/><path d="m0 0h120v30h-120zm0 0"/><path d="m0 60h120v30h-120zm0 0"/><path d="m150 0h30v30h-30zm0 0"/><path d="m150 60h30v30h-30zm0 0"/><path d="m332 0h120v30h-120zm0 0"/><path d="m332 60h120v30h-120zm0 0"/><path d="m482 0h30v30h-30zm0 0"/><path d="m482 60h30v30h-30zm0 0"/></svg>